<svg xmlns="http://www.w3.org/2000/svg" width="32" height="32" fill="none">
  <g clip-path="url(#a)">
    <circle cx="16" cy="16" r="16" fill="#1E1E1E"/>
    <path fill="#00F" d="M7.039 12.372v5.098c0 .79-.224 1.398-.672 1.824-.441.427-1.038.64-1.792.64-.79 0-1.422-.224-1.899-.672-.476-.448-.714-1.084-.714-1.909h1.813c0 .313.064.551.192.715.128.156.313.234.555.234.22 0 .39-.07.512-.213.12-.142.18-.348.18-.619v-5.098H7.04Zm12.214 0v7.488h-1.824v-4.491l-1.675 4.49h-1.472l-1.685-4.5v4.5h-1.824v-7.487h2.154l2.102 5.184 2.08-5.184h2.144Zm8.233 6.165h-2.795l-.448 1.323h-1.909l2.71-7.488h2.111l2.71 7.488h-1.931l-.448-1.323Zm-.47-1.408-.927-2.741-.918 2.741h1.846Z"/>
  </g>
  <defs>
    <clipPath id="a">
      <path fill="#fff" d="M0 0h32v32H0z"/>
    </clipPath>
  </defs>
</svg>
